# AST/ASF file generated using VICON BodyLanguage
# -----------------------------------------------
:version 1.10
:name VICON
:units
  mass 1.0
  length 0.45
  angle deg
:documentation
   .ast/.asf automatically generated from VICON data using
   VICON BodyBuilder and BodyLanguage model FoxedUp or BRILLIANT.MOD
:root
   order TX TY TZ RX RY RZ
   axis XYZ
   position 0 0 0  
   orientation 0 -0 0 
:bonedata
  begin
     id 1 
     name lhipjoint
     direction 0.500677 -0.737119 0.453848 
     length 2.34727 
     axis 0 -0 0  XYZ
  end
  begin
     id 2 
     name lfemur
     direction 0.34202 -0.939693 0  
     length 7.53653  
     axis 0 -0 20  XYZ
    dof rx ry rz
    limits (-160.0 20.0)
           (-70.0 70.0)
           (-60.0 70.0)
  end
  begin
     id 3 
     name ltibia
     direction 0.34202 -0.939693 0   
     length 6.85572   
     axis 0 -0 20   XYZ
    dof rx
    limits (-10.0 170.0)
  end
  begin
     id 4 
     name lfoot
     direction 0.155313 -0.426718 0.890949   
     length 2.18324   
     axis -90 -1.13533e-015 20   XYZ
    dof rx rz
    limits (-45.0 90.0)
           (-70.0 20.0)
  end
  begin
     id 5 
     name ltoes
     direction 1.53474e-011 -4.21647e-011 1   
     length 1.06748   
     axis -90 -1.13533e-015 20   XYZ
    dof rx
    limits (-90.0 20.0)
  end
  begin
     id 6 
     name rhipjoint
     direction -0.632471 -0.659587 0.406111   
     length 2.62319  
     axis 0 -0 0  XYZ 
  end
  begin
     id 7 
     name rfemur
     direction -0.34202 -0.939693 0   
     length 7.21735   
     axis 0 -0 -20   XYZ
    dof rx ry rz
    limits (-160.0 20.0)
           (-70.0 70.0)
           (-70.0 60.0)
  end
  begin
     id 8 
     name rtibia
     direction -0.34202 -0.939693 0   
     length 7.02558   
     axis 0 -0 -20   XYZ
    dof rx
    limits (-10.0 170.0)
 end
 begin
     id 9 
     name rfoot
     direction -0.16057 -0.441164 0.882945   
     length 2.10014  
     axis -90 1.13533e-015 -20   XYZ
    dof rx rz
    limits (-45.0 90.0)
           (-20.0 70.0)
  end
  begin
     id 10 
     name rtoes
     direction -1.53553e-011 -4.2192e-011 1   
     length 1.02554   
     axis -90 1.13533e-015 -20   XYZ
    dof rx
    limits (-90.0 20.0)
  end
  begin
     id 11 
     name lowerback
     direction 0.0401429 0.998861 -0.0258085   
     length 1.80848   
     axis 0 -0 0   XYZ
    dof rx ry rz
    limits (-20.0 45.0)
           (-30.0 30.0)
           (-30.0 30.0)
  end
  begin
     id 12 
     name upperback
     direction -0.0130978 0.999914 -0.000352645   
     length 1.8116   
     axis 0 -0 0   XYZ
    dof rx ry rz
    limits (-20.0 45.0)
           (-30.0 30.0)
           (-30.0 30.0)
  end
  begin
     id 13 
     name thorax
     direction -0.0300198 0.999453 0.0138573   
     length 1.81778   
     axis 0 -0 0   XYZ
    dof rx ry rz
    limits (-20.0 45.0)
           (-30.0 30.0)
           (-30.0 30.0)
  end
  begin
     id 14 
     name lowerneck
     direction -0.0401726 0.999191 -0.00173647   
     length 2.10594   
     axis 0 -0 0   XYZ
    dof rx ry rz
    limits (-20.0 45.0)
           (-30.0 30.0)
           (-30.0 30.0)
  end
  begin
     id 15 
     name upperneck
     direction 0.0119835 0.998501 0.0534085   
     length 2.07325   
     axis 0 -0 0   XYZ
    dof rx ry rz
    limits (-20.0 45.0)
           (-30.0 30.0)
           (-30.0 30.0)
  end
  begin
     id 16
     name head
     direction 0.00628309 0.999826 0.0175921  
     length 2.15096  
     axis 0 -0 0   XYZ
    dof rx ry rz
    limits (-20.0 45.0)
           (-30.0 30.0)
           (-30.0 30.0)
  end
  begin
     id 17 
     name lclavicle
     direction 0.895501 0.429681 -0.115981  
     length 4.18092  
     axis 0 -0 0   XYZ
    dof ry rz
    limits (-20.0 10.0)
           (0.0 20.0)
  end
  begin
     id 18 
     name lhumerus
     direction 1 -4.48961e-011 -3.38433e-028   
     length 5.77237   
     axis 180 -30 -90   XYZ
    dof rx ry rz
    limits (-60.0 90.0)
           (-90.0 90.0)
           (-90.0 90.0)
  end
  begin
     id 19
     name lradius
     direction 1 -4.4901e-011 1.11983e-026   
     length 2.91878   
     axis 180 -30 -90   XYZ
    dof rx
    limits (-10.0 170.0)
  end
  begin
     id 20
     name lwrist
     direction 1 -4.48934e-011 1.88176e-026   
     length 1.45939   
     axis -1.23311e-014 90 90   XYZ
    dof ry
    limits (-180.0 0.0)
 end
  begin
     id 21 
     name lhand
     direction 1 -4.4895e-011 3.76352e-026   
     length 1.06566   
     axis -2.40147e-014 90 90   XYZ
    dof rx rz
    limits (-90.0 90.0)
           (-45.0 45.0)
  end
  begin
     id 22 
     name lfingers
     direction 1 -4.49005e-011 7.52705e-026   
     length 0.859162   
     axis -4.80295e-014 90 90   XYZ
    dof rx
    limits (0.0 90.0)
  end
  begin
     id 23
     name lthumb
     direction 0.707107 -6.34885e-011 0.707107   
     length 1.23359   
     axis -90 45 -9.86935e-015   XYZ
    dof rx rz
    limits (-45.0 45.0)
           (-45.0 45.0)
  end
  begin
     id 24 
     name rclavicle
     direction -0.91006 0.40451 -0.0903492   
     length 4.23293  
     axis 0 -0 0   XYZ 
    dof ry rz
    limits (-10.0 20.0)
           (-20.0 0.0)
  end
  begin
     id 25 
     name rhumerus
     direction -1 -4.4897e-011 1.7415e-027  
     length 5.49854   
     axis 180 30 90   XYZ
    dof rx ry rz
    limits (-90.0 60.0)
           (-90.0 90.0)
           (-90.0 90.0)
  end
  begin
     id 26 
     name rradius
     direction -1 -4.48963e-011 1.21259e-026   
     length 3.1186   
     axis 180 30 90   XYZ
    dof rx
    limits (-10.0 170.0)
  end
  begin
     id 27 
     name rwrist
     direction -1 -4.48967e-011 1.88176e-026   
     length 1.5593   
     axis -1.23311e-014 -90 -90   XYZ
    dof ry
    limits (-180.0 0.0)
  end
  begin
     id 28
     name rhand
     direction -1 -4.4895e-011 3.76352e-026   
     length 0.71207   
     axis -2.40147e-014 -90 -90   XYZ
    dof rx rz
    limits (-90.0 90.0)
           (-45.0 45.0)
  end
  begin
     id 29
     name rfingers
     direction -1 -4.49005e-011 7.52705e-026   
     length 0.574089   
     axis -4.80295e-014 -90 -90   XYZ
    dof rx
    limits (0.0 90.0)
  end
  begin
     id 30
     name rthumb
     direction -0.707107 -6.34982e-011 0.707107   
     length 0.824281   
     axis -90 -45 9.86935e-015   XYZ
    dof rx rz
    limits (-45.0 45.0)
           (-45.0 45.0)
  end
:hierarchy
  begin
    root lhipjoint rhipjoint lowerback
    lhipjoint lfemur
    lfemur ltibia
    ltibia lfoot
    lfoot ltoes
    rhipjoint rfemur
    rfemur rtibia
    rtibia rfoot
    rfoot rtoes
    lowerback upperback
    upperback thorax
    thorax lowerneck lclavicle rclavicle
    lowerneck upperneck
    upperneck head
    lclavicle lhumerus
    lhumerus lradius
    lradius lwrist
    lwrist lhand lthumb
    lhand lfingers
    rclavicle rhumerus
    rhumerus rradius
    rradius rwrist
    rwrist rhand rthumb
    rhand rfingers
  end

#!OML:ASF C:\ViconDB\ViconDB\414\Spring2016\042216\male.ASF
:FULLY-SPECIFIED
:DEGREES
127
root 1.85317 14.8652 9.04721 -156.225 67.6919 -173.252
lowerback 15.0507 -3.79879 6.09293
upperback 0.440219 -4.01449 -1.0959
thorax -8.4939 -2.17842 -3.72786
lowerneck -1.05002 6.5786 -4.49479
upperneck -34.6651 10.43 -4.62229
head -11.068 6.87077 -2.01893
rclavicle -1.82882e-014 3.65764e-014
rhumerus -10.2954 29.3021 -75.5769
rradius 59.2122
rwrist -0.266717
rhand 14.6501 -25.3607
rfingers 7.12502
rthumb 39.5222 -50.7292
lclavicle -1.82882e-014 3.65764e-014
lhumerus -11.3194 3.63579 75.5591
lradius 54.8093
lwrist 12.2471
lhand -13.0106 11.1879
lfingers 7.12502
lthumb 13.083 40.7576
rfemur -53.0413 -5.0448 19.7496
rtibia 78.9029
rfoot -32.8615 -10.8942
rtoes -24.9936
lfemur -54.5627 0.622058 -13.7357
ltibia 77.4672
lfoot -42.4155 19.9624
ltoes -25.8347
128
root 1.91513 14.8733 9.03682 -156.53 67.9453 -172.936
lowerback 14.5882 -3.64907 6.01086
upperback 0.351603 -3.86479 -1.08117
thorax -8.30534 -2.10469 -3.71943
lowerneck -1.03126 6.62009 -4.65566
upperneck -33.7977 10.4524 -4.22241
head -10.7615 6.79839 -1.79608
rclavicle -6.75868e-015 3.02153e-014
rhumerus -6.65037 28.6982 -72.662
rradius 62.6902
rwrist -1.88184
rhand 12.971 -26.0442
rfingers 7.12502
rthumb 37.9384 -51.8602
lclavicle -6.75868e-015 3.02153e-014
lhumerus -8.25467 0.827889 74.4332
lradius 58.4831
lwrist 14.4788
lhand -12.782 11.9623
lfingers 7.12502
lthumb 13.3034 41.5177
rfemur -52.0848 -4.99957 19.9318
rtibia 78.6741
rfoot -32.7357 -11.42
rtoes -25.4641
lfemur -53.4691 1.00633 -13.7962
ltibia 77.2584
lfoot -42.5373 20.2443
ltoes -26.2329
129
root 1.99364 14.9215 9.02693 -156.89 67.6811 -172.492
lowerback 14.0953 -3.69533 6.15812
upperback 0.406401 -3.92976 -0.986333
thorax -7.97921 -2.13248 -3.70976
lowerneck -1.09435 6.68543 -4.6924
upperneck -32.9494 10.5027 -3.93152
head -10.4379 6.74241 -1.63508
rclavicle 7.11649e-014 -3.73715e-014
rhumerus -2.7756 27.5692 -69.7869
rradius 65.9703
rwrist -3.84149
rhand 11.6692 -26.6593
rfingers 7.12502
rthumb 36.7078 -52.7987
lclavicle 7.11649e-014 -3.73715e-014
lhumerus -4.79975 -1.04839 73.0715
lradius 61.6084
lwrist 15.654
lhand -12.604 11.7682
lfingers 7.12502
lthumb 13.4749 41.3123
rfemur -50.4013 -5.31097 20.3861
rtibia 77.9769
rfoot -33.028 -11.8676
rtoes -25.0467
lfemur -51.9534 0.888493 -13.5014
ltibia 76.6974
lfoot -42.6055 20.4408
ltoes -26.3834
130
root 2.0666 14.9814 9.00514 -157.157 67.4628 -172.304
lowerback 13.3071 -3.71023 6.36692
upperback 0.322657 -3.97255 -0.919921
thorax -7.64114 -2.15875 -3.78141
lowerneck -1.08806 6.72087 -4.83263
upperneck -32.1518 10.5278 -3.5485
head -10.1651 6.67898 -1.43473
rclavicle -4.49253e-014 -2.94201e-014
rhumerus 0.912131 26.2974 -66.7605
rradius 69.1521
rwrist -5.5807
rhand 10.9245 -26.8104
rfingers 7.12502
rthumb 36.0027 -53.1262
lclavicle -4.49253e-014 -2.94201e-014
lhumerus -1.43783 -2.76038 71.4683
lradius 64.6159
lwrist 16.2758
lhand -12.6924 11.6431
lfingers 7.12502
lthumb 13.3897 41.1928
rfemur -49.0142 -5.85467 20.7905
rtibia 76.9538
rfoot -33.2173 -12.3209
rtoes -24.6657
lfemur -50.7504 0.658151 -13.3492
ltibia 75.8804
lfoot -42.5028 20.5968
ltoes -26.5806
131
root 2.15074 15.0596 8.99102 -157.32 67.4748 -171.856
lowerback 12.7137 -3.64418 6.35439
upperback 0.250884 -3.92552 -0.81926
thorax -7.36999 -2.1323 -3.70297
lowerneck -1.02311 6.79956 -4.7841
upperneck -31.3695 10.5717 -3.35419
head -9.8889 6.62296 -1.33772
rclavicle -3.49861e-014 2.06736e-014
rhumerus 4.50468 25.0527 -63.7059
rradius 72.3091
rwrist -7.86417
rhand 10.1416 -27.2833
rfingers 7.12502
rthumb 35.2607 -53.7781
lclavicle -3.49861e-014 2.06736e-014
lhumerus 1.83968 -3.45471 69.8664
lradius 67.2155
lwrist 15.7281
lhand -11.9772 10.5047
lfingers 7.12502
lthumb 14.079 40.0078
rfemur -47.2353 -6.36498 21.3958
rtibia 75.4816
rfoot -33.2879 -13.9868
rtoes -25.8548
lfemur -49.1442 0.689806 -13.124
ltibia 74.7117
lfoot -42.4279 20.5184
ltoes -26.5654
132
root 2.23637 15.1592 8.9738 -157.739 67.4702 -171.69
lowerback 12.0694 -3.60109 6.31285
upperback 0.244369 -3.92025 -0.767125
thorax -7.00623 -2.12164 -3.65635
lowerneck -1.08594 6.88345 -4.8218
upperneck -30.5832 10.6687 -3.03581
head -9.60681 6.59565 -1.18546
rclavicle 4.85035e-014 -1.74931e-014
rhumerus 8.12702 23.5416 -60.6986
rradius 75.032
rwrist -9.6372
rhand 9.88164 -27.4648
rfingers 7.12502
rthumb 35.0141 -54.0176
lclavicle 4.85035e-014 -1.74931e-014
lhumerus 5.26119 -4.53423 67.841
lradius 69.3997
lwrist 16.6572
lhand -12.028 10.119
lfingers 7.12502
lthumb 14.03 39.6255
rfemur -45.2237 -6.84453 21.8066
rtibia 73.5976
rfoot -33.4716 -14.6995
rtoes -24.912
lfemur -47.3788 0.591236 -12.9923
ltibia 73.1721
lfoot -42.1518 20.4074
ltoes -26.5164
133
root 2.3262 15.3018 8.95688 -158.228 67.4576 -171.513
lowerback 11.5876 -3.54691 6.17449
upperback 0.198073 -3.89632 -0.659953
thorax -6.76368 -2.10116 -3.49175
lowerneck -0.92826 6.98395 -4.76667
upperneck -29.9337 10.7377 -2.9072
head -9.40077 6.56554 -1.1303
rclavicle 5.14852e-014 8.74653e-015
rhumerus 11.5015 22.1357 -57.5561
rradius 77.6318
rwrist -11.4127
rhand 9.29872 -28.1465
rfingers 7.12502
rthumb 34.4609 -54.8267
lclavicle 5.14852e-014 8.74653e-015
lhumerus 8.27658 -5.24722 66.0561
lradius 71.4968
lwrist 16.7561
lhand -12.0936 10.2163
lfingers 7.12502
lthumb 13.9668 39.7271
rfemur -42.836 -7.16434 22.1597
rtibia 71.1807
rfoot -33.7801 -14.9313
rtoes -23.062
lfemur -45.2555 0.332904 -12.7761
ltibia 71.1618
lfoot -41.7539 20.1031
ltoes -26.2902
134
root 2.42436 15.4709 8.9472 -158.782 67.4427 -171.316
lowerback 11.2309 -3.50227 5.8314
upperback 0.191583 -3.89462 -0.461146
thorax -6.53056 -2.08177 -3.10707
lowerneck -1.02294 7.08432 -4.87659
upperneck -29.1203 10.8212 -2.70887
head -9.10868 6.55368 -1.00772
rclavicle 5.76476e-015 1.03368e-014
rhumerus 14.8447 20.3746 -54.5742
rradius 79.5203
rwrist -12.0168
rhand 9.29125 -27.5964
rfingers 7.12502
rthumb 34.4538 -54.2783
lclavicle 5.76476e-015 1.03368e-014
lhumerus 11.245 -5.56506 64.112
lradius 73.1891
lwrist 17.2154
lhand -11.6737 10.2282
lfingers 7.12502
lthumb 14.3714 39.7107
rfemur -40.0785 -7.42806 22.4894
rtibia 68.2545
rfoot -33.9278 -15.3264
rtoes -21.3613
lfemur -42.8209 0.21171 -12.5594
ltibia 68.7362
lfoot -41.1039 19.6967
ltoes -26.3254
135
root 2.52428 15.657 8.93121 -159.44 67.4429 -171.2
lowerback 10.7995 -3.44791 5.56559
upperback 0.248184 -3.87836 -0.336161
thorax -6.19793 -2.05636 -2.85354
lowerneck -1.24288 7.19469 -4.96913
upperneck -28.232 10.9518 -2.42191
head -8.7772 6.55695 -0.854789
rclavicle 1.55052e-014 -3.10104e-014
rhumerus 17.8147 18.5342 -51.8141
rradius 81.1316
rwrist -12.2451
rhand 9.07982 -27.3142
rfingers 7.12502
rthumb 34.2531 -54.0414
lclavicle 1.55052e-014 -3.10104e-014
lhumerus 14.0385 -5.63327 62.3085
lradius 74.5437
lwrist 17.7759
lhand -11.2306 10.2565
lfingers 7.12502
lthumb 14.7983 39.7082
rfemur -37.1041 -7.75743 22.702
rtibia 64.8413
rfoot -33.4592 -15.7378
rtoes -20.6281
lfemur -40.2114 0.0112376 -12.4022
ltibia 65.9168
lfoot -40.1667 19.2584
ltoes -26.3183
